<svg width="14" height="14" viewBox="0 0 14 14" fill="none" xmlns="http://www.w3.org/2000/svg">
<g clip-path="url(#clip0_3934_1318)">
<path d="M3.73285 2.6642L3.73254 2.66482C3.68665 2.7566 3.59148 2.81246 3.50114 2.81246C2.7089 2.81246 1.94305 3.14424 1.39998 3.72522C1.12956 4.01021 0.92121 4.3482 0.788099 4.71783C0.654948 5.08757 0.599983 5.48092 0.626677 5.87299C0.626693 5.87322 0.626708 5.87344 0.626724 5.87367L0.929885 10.6834C0.929899 10.6837 0.929913 10.6839 0.929926 10.6842C0.97963 11.5484 1.28254 12.2635 1.81323 12.7624C2.34393 13.2614 3.07758 13.5208 3.94448 13.5208H10.0578C10.9311 13.5208 11.6626 13.27 12.191 12.7743C12.7195 12.2785 13.0168 11.564 13.0723 10.6908L13.0723 10.6907L13.3756 5.87259C13.4267 5.07393 13.1512 4.31244 12.603 3.72597C12.0599 3.14452 11.2937 2.81246 10.5011 2.81246C10.4055 2.81246 10.3144 2.75683 10.2682 2.67331L9.85036 1.82605L9.85038 1.82604L9.84898 1.82329C9.65218 1.43638 9.31599 1.10287 8.93365 0.866484C8.55143 0.630171 8.10397 0.479126 7.67198 0.479126H6.33614C5.90425 0.479126 5.45536 0.63011 5.07163 0.867167C4.68776 1.1043 4.34979 1.43949 4.15292 1.82989L4.15285 1.83003L3.73285 2.6642ZM4.95975 3.28837L4.95977 3.28838L4.96142 3.2851L5.38075 2.44642C5.38084 2.44624 5.38094 2.44605 5.38103 2.44587C5.45392 2.30259 5.60233 2.15139 5.79094 2.03479C5.94684 1.93841 6.10998 1.87814 6.2501 1.85996H6.33614H7.66614C7.82263 1.85996 8.02242 1.92379 8.21081 2.04002C8.39926 2.15628 8.54545 2.30593 8.61504 2.4451L9.04087 3.29676L9.0408 3.2968L9.04373 3.30232C9.33078 3.84224 9.88669 4.18746 10.5011 4.18746C10.9211 4.18746 11.3107 4.35657 11.6026 4.66315C11.7419 4.8123 11.8492 4.98842 11.9179 5.18064C11.9867 5.37318 12.0152 5.57779 12.0017 5.78179L12.0016 5.78258L11.6983 10.6006C11.663 11.1495 11.5001 11.5256 11.2448 11.7661C10.9897 12.0065 10.606 12.1458 10.0578 12.1458H3.94448C3.39297 12.1458 3.00797 12.0063 2.75311 11.7661C2.49825 11.526 2.33663 11.1504 2.30404 10.6018L2.30398 10.6009L2.00066 5.78258L2.00049 5.78027C1.97066 5.36757 2.11411 4.9692 2.39972 4.66311C2.69159 4.35655 3.08115 4.18746 3.50114 4.18746C4.11645 4.18746 4.67306 3.84127 4.95975 3.28837Z" fill="url(#paint0_linear_3934_1318)" stroke="url(#paint1_linear_3934_1318)" stroke-width="0.5"/>
<path d="M6.12533 5.35413H7.87533C8.25256 5.35413 8.56283 5.04386 8.56283 4.66663C8.56283 4.28939 8.25256 3.97913 7.87533 3.97913H6.12533C5.74809 3.97913 5.43783 4.28939 5.43783 4.66663C5.43783 5.04386 5.74809 5.35413 6.12533 5.35413ZM4.41699 8.60413C4.41699 10.0314 5.57309 11.1875 7.00033 11.1875C8.42756 11.1875 9.58366 10.0314 9.58366 8.60413C9.58366 7.17689 8.42756 6.02079 7.00033 6.02079C5.57309 6.02079 4.41699 7.17689 4.41699 8.60413ZM6.1459 7.74971C6.37251 7.5231 6.67986 7.39579 7.00033 7.39579C7.3208 7.39579 7.62814 7.5231 7.85475 7.74971C8.08135 7.97631 8.20866 8.28366 8.20866 8.60413C8.20866 8.9246 8.08135 9.23194 7.85475 9.45855C7.62814 9.68515 7.3208 9.81246 7.00033 9.81246C6.67986 9.81246 6.37251 9.68515 6.14591 9.45855C5.9193 9.23194 5.79199 8.9246 5.79199 8.60413C5.79199 8.28366 5.9193 7.97631 6.1459 7.74971Z" fill="url(#paint2_linear_3934_1318)" stroke="url(#paint3_linear_3934_1318)" stroke-width="0.5"/>
</g>
<defs>
<linearGradient id="paint0_linear_3934_1318" x1="0.870117" y1="13.2708" x2="13.6517" y2="12.7163" gradientUnits="userSpaceOnUse">
<stop stop-color="#4338CA"/>
<stop offset="1" stop-color="#5E52F3"/>
</linearGradient>
<linearGradient id="paint1_linear_3934_1318" x1="0.870117" y1="13.2708" x2="13.6517" y2="12.7163" gradientUnits="userSpaceOnUse">
<stop stop-color="#4338CA"/>
<stop offset="1" stop-color="#5E52F3"/>
</linearGradient>
<linearGradient id="paint2_linear_3934_1318" x1="4.66699" y1="10.9375" x2="9.5361" y2="10.7872" gradientUnits="userSpaceOnUse">
<stop stop-color="#4338CA"/>
<stop offset="1" stop-color="#5E52F3"/>
</linearGradient>
<linearGradient id="paint3_linear_3934_1318" x1="4.66699" y1="10.9375" x2="9.5361" y2="10.7872" gradientUnits="userSpaceOnUse">
<stop stop-color="#4338CA"/>
<stop offset="1" stop-color="#5E52F3"/>
</linearGradient>
<clipPath id="clip0_3934_1318">
<rect width="14" height="14" fill="white"/>
</clipPath>
</defs>
</svg>
